<svg width="26" height="29" viewBox="0 0 26 29" fill="none" xmlns="http://www.w3.org/2000/svg">
<path fill-rule="evenodd" clip-rule="evenodd" d="M11.3026 2.97601C10.9185 2.87326 10.5093 2.92722 10.1649 3.12602C9.8206 3.32482 9.56928 3.65221 9.46621 4.03622C9.36317 4.42014 9.41673 4.82924 9.61511 5.17369C9.61517 5.17378 9.61506 5.1736 9.61511 5.17369L12.8649 10.8024C13.141 11.2807 12.9771 11.8923 12.4988 12.1684C12.0205 12.4446 11.4089 12.2807 11.1328 11.8024L7.88281 6.17325C7.4196 5.3694 7.29408 4.41382 7.53458 3.51778C7.77507 2.62174 8.36148 1.85784 9.16494 1.39397C9.96839 0.930094 10.9232 0.804194 11.8194 1.04394C12.7156 1.28368 13.48 1.86946 13.9446 2.67252L18.945 11.3335C19.2211 11.8118 19.0573 12.4234 18.579 12.6995C18.1007 12.9757 17.4891 12.8118 17.2129 12.3335L12.2134 3.67397C12.2133 3.67387 12.2134 3.67407 12.2134 3.67397C12.0142 3.32995 11.6866 3.07872 11.3026 2.97601Z" fill="#ffffff"/>
<path fill-rule="evenodd" clip-rule="evenodd" d="M5.97184 3.74073C5.78149 3.68964 5.58294 3.67656 5.38753 3.70224C5.19212 3.72793 5.00369 3.79187 4.83301 3.89042C4.66232 3.98896 4.51273 4.12017 4.39279 4.27656C4.27284 4.43295 4.18489 4.61144 4.13396 4.80183C4.08303 4.99222 4.07012 5.19079 4.09596 5.38618C4.12181 5.58156 4.18591 5.76994 4.2846 5.94054L9.03502 14.1685C9.31116 14.6468 9.14728 15.2584 8.66899 15.5345C8.1907 15.8107 7.57911 15.6468 7.30297 15.1685L2.55338 6.94199C2.55332 6.94187 2.55345 6.9421 2.55338 6.94199C2.32323 6.54401 2.17353 6.10424 2.11324 5.64847C2.05293 5.19257 2.08305 4.72925 2.20189 4.285C2.32073 3.84075 2.52595 3.42427 2.80583 3.05937C3.0857 2.69447 3.43475 2.3883 3.83301 2.15836C4.23127 1.92843 4.67094 1.77923 5.12689 1.7193C5.58284 1.65937 6.04613 1.68988 6.49029 1.80909C6.93444 1.9283 7.35075 2.13387 7.71541 2.41405C8.07986 2.69407 8.38558 3.04311 8.61514 3.44126L12.8651 10.8025C13.1413 11.2808 12.9774 11.8924 12.4991 12.1685C12.0208 12.4446 11.4092 12.2808 11.1331 11.8025L6.88309 4.44126C6.78469 4.2705 6.65318 4.12007 6.4969 4C6.34061 3.87992 6.16219 3.79182 5.97184 3.74073Z" fill="#ffffff"/>
<path fill-rule="evenodd" clip-rule="evenodd" d="M19.3819 6.96778C19.1916 6.91669 18.993 6.90361 18.7976 6.9293C18.6022 6.95498 18.4138 7.01892 18.2431 7.11747C18.0724 7.21601 17.9228 7.34723 17.8029 7.50361C17.6829 7.66 17.595 7.83849 17.544 8.02888C17.4931 8.21928 17.4802 8.41784 17.506 8.61323C17.5319 8.80861 17.596 8.99699 17.6947 9.16759L18.9451 11.3334C19.2212 11.8117 19.0574 12.4233 18.5791 12.6994C17.6603 13.2298 16.9899 14.1035 16.7154 15.1282C16.4408 16.1529 16.5845 17.2448 17.115 18.1635C17.3911 18.6418 17.2272 19.2534 16.7489 19.5295C16.2706 19.8057 15.659 19.6418 15.3829 19.1635C14.5873 17.7854 14.3716 16.1477 14.7835 14.6106C15.1081 13.3993 15.8013 12.3288 16.755 11.54L15.9635 10.169C15.7332 9.77097 15.5836 9.33142 15.5233 8.87552C15.463 8.41962 15.4931 7.9563 15.612 7.51205C15.7308 7.0678 15.936 6.65132 16.2159 6.28642C16.4958 5.92152 16.8448 5.61535 17.2431 5.38542C17.6413 5.15548 18.081 5.00628 18.537 4.94635C18.9929 4.88642 19.4562 4.91693 19.9004 5.03614C20.3445 5.15535 20.7608 5.36092 21.1255 5.6411C21.4899 5.92112 21.7957 6.27016 22.0252 6.66831L24.5251 10.9982C24.5251 10.9983 24.5251 10.9982 24.5251 10.9982C25.2477 12.2492 25.7169 13.6305 25.9057 15.0628C26.0945 16.4951 25.9993 17.9506 25.6255 19.3462C25.2518 20.7418 24.6068 22.05 23.7273 23.1963C22.8479 24.3425 21.7512 25.3043 20.5 26.0267C19.2489 26.749 17.8676 27.2178 16.4352 27.4063C15.0028 27.5948 13.5473 27.4993 12.1518 27.1252C10.7564 26.7512 9.44826 26.1058 8.30221 25.2261C7.15616 24.3464 6.19463 23.2496 5.47254 21.9982L0.72265 13.7712C0.259447 12.9674 0.133928 12.0118 0.374422 11.1157C0.614916 10.2197 1.20133 9.4558 2.00478 8.99192C2.80824 8.52805 3.763 8.40215 4.65924 8.64189C5.55548 8.88163 6.31986 9.46741 6.78441 10.2705L9.03483 14.1683C9.31097 14.6466 9.14709 15.2582 8.6688 15.5343C8.19051 15.8105 7.57892 15.6466 7.30277 15.1683L5.05319 11.2719C5.05312 11.2718 5.05326 11.272 5.05319 11.2719C4.85408 10.9279 4.52637 10.6767 4.14241 10.574C3.7583 10.4712 3.34912 10.5252 3.00478 10.724C2.66045 10.9228 2.40913 11.2502 2.30606 11.6342C2.20302 12.0181 2.25657 12.4271 2.45491 12.7716C2.45498 12.7717 2.45484 12.7714 2.45491 12.7716L7.2047 20.9984C7.79551 22.0223 8.58232 22.9199 9.52 23.6396C10.4577 24.3594 11.528 24.8874 12.6697 25.1934C13.8115 25.4995 15.0023 25.5777 16.1743 25.4234C17.3462 25.2692 18.4763 24.8856 19.5 24.2946C20.5237 23.7036 21.421 22.9167 22.1405 21.9788C22.8601 21.041 23.3878 19.9706 23.6936 18.8288C23.9995 17.687 24.0773 16.4961 23.9229 15.3241C23.7684 14.1522 23.3845 13.0222 22.7933 11.9986L20.2932 7.66831C20.1948 7.49755 20.0632 7.34712 19.907 7.22705C19.7507 7.10697 19.5723 7.01887 19.3819 6.96778Z" fill="#ffffff"/>
<path fill-rule="evenodd" clip-rule="evenodd" d="M2.50091 22.6322C2.97959 22.3568 3.59095 22.5215 3.86641 23.0002C4.82157 24.66 6.13312 26.0872 7.70651 27.1789C8.16027 27.4937 8.27289 28.1168 7.95805 28.5705C7.64322 29.0243 7.02015 29.1369 6.56639 28.8221C4.74989 27.5617 3.23569 25.914 2.13295 23.9977C1.85748 23.519 2.02223 22.9077 2.50091 22.6322Z" fill="#ffffff"/>
<path fill-rule="evenodd" clip-rule="evenodd" d="M21.7497 3.61177C20.9138 3.12898 19.9655 2.87487 19.0001 2.875C18.4478 2.87507 18.0001 2.42742 18 1.87513C17.9999 1.32285 18.4476 0.875074 18.9999 0.875C20.3165 0.874825 21.6099 1.2214 22.75 1.87986C23.8901 2.53832 24.8367 3.48543 25.4945 4.62591C25.7704 5.10432 25.6063 5.71584 25.1279 5.99178C24.6495 6.26772 24.0379 6.10359 23.762 5.62518C23.2797 4.78898 22.5856 4.09455 21.7497 3.61177Z" fill="#ffffff"/>
</svg>
